<mxfile host="app.diagrams.net" modified="2020-11-18T09:15:21.375Z" agent="5.0 (Windows NT 10.0; WOW64) AppleWebKit/537.36 (KHTML, like Gecko) Chrome/86.0.4240.198 Safari/537.36" etag="oTycKhMcyhAHgG1lQRwP" version="13.9.9" type="github">
  <diagram id="kgpKYQtTHZ0yAKxKKP6v" name="Page-1">
    <mxGraphModel dx="2272" dy="794" grid="1" gridSize="10" guides="1" tooltips="1" connect="1" arrows="1" fold="1" page="1" pageScale="1" pageWidth="850" pageHeight="1100" math="0" shadow="0">
      <root>
        <mxCell id="0" />
        <mxCell id="1" parent="0" />
        <mxCell id="NzUYAXVn2wpB4ZHDf69p-35" value="" style="rounded=0;whiteSpace=wrap;html=1;" vertex="1" parent="1">
          <mxGeometry x="-490" y="410" width="220" height="200" as="geometry" />
        </mxCell>
        <mxCell id="3nuBFxr9cyL0pnOWT2aG-1" value="hdt-tool-controll" style="shape=umlLifeline;perimeter=lifelinePerimeter;container=1;collapsible=0;recursiveResize=0;rounded=0;shadow=0;strokeWidth=1;" parent="1" vertex="1">
          <mxGeometry x="120" y="80" width="100" height="300" as="geometry" />
        </mxCell>
        <mxCell id="3nuBFxr9cyL0pnOWT2aG-2" value="" style="points=[];perimeter=orthogonalPerimeter;rounded=0;shadow=0;strokeWidth=1;" parent="3nuBFxr9cyL0pnOWT2aG-1" vertex="1">
          <mxGeometry x="45" y="70" width="10" height="190" as="geometry" />
        </mxCell>
        <mxCell id="3nuBFxr9cyL0pnOWT2aG-3" value="dispatch" style="verticalAlign=bottom;startArrow=oval;endArrow=block;startSize=8;shadow=0;strokeWidth=1;" parent="3nuBFxr9cyL0pnOWT2aG-1" target="3nuBFxr9cyL0pnOWT2aG-2" edge="1">
          <mxGeometry relative="1" as="geometry">
            <mxPoint x="-15" y="70" as="sourcePoint" />
          </mxGeometry>
        </mxCell>
        <mxCell id="3nuBFxr9cyL0pnOWT2aG-4" value="" style="points=[];perimeter=orthogonalPerimeter;rounded=0;shadow=0;strokeWidth=1;" parent="3nuBFxr9cyL0pnOWT2aG-1" vertex="1">
          <mxGeometry x="50" y="120" width="10" height="80" as="geometry" />
        </mxCell>
        <mxCell id="3nuBFxr9cyL0pnOWT2aG-5" value="hdt-tool-server" style="shape=umlLifeline;perimeter=lifelinePerimeter;container=1;collapsible=0;recursiveResize=0;rounded=0;shadow=0;strokeWidth=1;" parent="1" vertex="1">
          <mxGeometry x="300" y="80" width="100" height="300" as="geometry" />
        </mxCell>
        <mxCell id="3nuBFxr9cyL0pnOWT2aG-6" value="" style="points=[];perimeter=orthogonalPerimeter;rounded=0;shadow=0;strokeWidth=1;" parent="3nuBFxr9cyL0pnOWT2aG-5" vertex="1">
          <mxGeometry x="45" y="80" width="10" height="160" as="geometry" />
        </mxCell>
        <mxCell id="3nuBFxr9cyL0pnOWT2aG-7" value="return" style="verticalAlign=bottom;endArrow=open;dashed=1;endSize=8;exitX=0;exitY=0.95;shadow=0;strokeWidth=1;" parent="1" source="3nuBFxr9cyL0pnOWT2aG-6" target="3nuBFxr9cyL0pnOWT2aG-2" edge="1">
          <mxGeometry relative="1" as="geometry">
            <mxPoint x="275" y="236" as="targetPoint" />
          </mxGeometry>
        </mxCell>
        <mxCell id="3nuBFxr9cyL0pnOWT2aG-8" value="dispatch" style="verticalAlign=bottom;endArrow=block;entryX=0;entryY=0;shadow=0;strokeWidth=1;" parent="1" source="3nuBFxr9cyL0pnOWT2aG-2" target="3nuBFxr9cyL0pnOWT2aG-6" edge="1">
          <mxGeometry relative="1" as="geometry">
            <mxPoint x="275" y="160" as="sourcePoint" />
          </mxGeometry>
        </mxCell>
        <mxCell id="3nuBFxr9cyL0pnOWT2aG-9" value="callback" style="verticalAlign=bottom;endArrow=block;entryX=1;entryY=0;shadow=0;strokeWidth=1;" parent="1" source="3nuBFxr9cyL0pnOWT2aG-6" target="3nuBFxr9cyL0pnOWT2aG-4" edge="1">
          <mxGeometry relative="1" as="geometry">
            <mxPoint x="240" y="200" as="sourcePoint" />
          </mxGeometry>
        </mxCell>
        <mxCell id="3nuBFxr9cyL0pnOWT2aG-10" value="return" style="verticalAlign=bottom;endArrow=open;dashed=1;endSize=8;exitX=1;exitY=0.95;shadow=0;strokeWidth=1;" parent="1" source="3nuBFxr9cyL0pnOWT2aG-4" target="3nuBFxr9cyL0pnOWT2aG-6" edge="1">
          <mxGeometry relative="1" as="geometry">
            <mxPoint x="240" y="257" as="targetPoint" />
          </mxGeometry>
        </mxCell>
        <mxCell id="NzUYAXVn2wpB4ZHDf69p-17" style="edgeStyle=orthogonalEdgeStyle;rounded=0;orthogonalLoop=1;jettySize=auto;html=1;" edge="1" parent="1" source="NzUYAXVn2wpB4ZHDf69p-16">
          <mxGeometry relative="1" as="geometry">
            <mxPoint x="-450" y="460" as="targetPoint" />
          </mxGeometry>
        </mxCell>
        <mxCell id="NzUYAXVn2wpB4ZHDf69p-16" value="&lt;span&gt;互动工具页/其他位置访问&lt;/span&gt;" style="ellipse;whiteSpace=wrap;html=1;" vertex="1" parent="1">
          <mxGeometry x="-640" y="430" width="130" height="60" as="geometry" />
        </mxCell>
        <mxCell id="NzUYAXVn2wpB4ZHDf69p-18" value="访问链接" style="text;html=1;align=center;verticalAlign=middle;resizable=0;points=[];autosize=1;" vertex="1" parent="1">
          <mxGeometry x="-340" y="430" width="60" height="20" as="geometry" />
        </mxCell>
        <mxCell id="NzUYAXVn2wpB4ZHDf69p-54" style="edgeStyle=orthogonalEdgeStyle;rounded=0;orthogonalLoop=1;jettySize=auto;html=1;entryX=0.117;entryY=1.25;entryDx=0;entryDy=0;entryPerimeter=0;" edge="1" parent="1" source="NzUYAXVn2wpB4ZHDf69p-19" target="NzUYAXVn2wpB4ZHDf69p-18">
          <mxGeometry relative="1" as="geometry">
            <Array as="points">
              <mxPoint x="-210" y="455" />
              <mxPoint x="-210" y="455" />
            </Array>
          </mxGeometry>
        </mxCell>
        <mxCell id="NzUYAXVn2wpB4ZHDf69p-19" value="" style="shape=cylinder3;whiteSpace=wrap;html=1;boundedLbl=1;backgroundOutline=1;size=15;" vertex="1" parent="1">
          <mxGeometry x="-90" y="420" width="60" height="70" as="geometry" />
        </mxCell>
        <mxCell id="NzUYAXVn2wpB4ZHDf69p-21" value="redis" style="text;html=1;align=center;verticalAlign=middle;resizable=0;points=[];autosize=1;" vertex="1" parent="1">
          <mxGeometry x="-10" y="445" width="40" height="20" as="geometry" />
        </mxCell>
        <mxCell id="NzUYAXVn2wpB4ZHDf69p-28" value="&lt;span style=&quot;color: rgb(0, 0, 0); font-family: helvetica; font-size: 12px; font-style: normal; font-weight: 400; letter-spacing: normal; text-align: center; text-indent: 0px; text-transform: none; word-spacing: 0px; background-color: rgb(248, 249, 250); display: inline; float: none;&quot;&gt;互动工具页/其他位置访问&lt;/span&gt;" style="text;whiteSpace=wrap;html=1;" vertex="1" parent="1">
          <mxGeometry x="-50" y="140" width="160" height="30" as="geometry" />
        </mxCell>
        <mxCell id="NzUYAXVn2wpB4ZHDf69p-36" value="hdt-tool-controll" style="text;html=1;align=center;verticalAlign=middle;resizable=0;points=[];autosize=1;" vertex="1" parent="1">
          <mxGeometry x="-500" y="380" width="100" height="20" as="geometry" />
        </mxCell>
        <mxCell id="NzUYAXVn2wpB4ZHDf69p-38" style="edgeStyle=orthogonalEdgeStyle;rounded=0;orthogonalLoop=1;jettySize=auto;html=1;exitX=0.5;exitY=1;exitDx=0;exitDy=0;entryX=0.5;entryY=1;entryDx=0;entryDy=0;" edge="1" parent="1" source="NzUYAXVn2wpB4ZHDf69p-37" target="NzUYAXVn2wpB4ZHDf69p-16">
          <mxGeometry relative="1" as="geometry" />
        </mxCell>
        <mxCell id="NzUYAXVn2wpB4ZHDf69p-37" value="落地页信息是否存在" style="rhombus;whiteSpace=wrap;html=1;" vertex="1" parent="1">
          <mxGeometry x="-450" y="420" width="120" height="80" as="geometry" />
        </mxCell>
        <mxCell id="NzUYAXVn2wpB4ZHDf69p-39" value="否，404" style="text;html=1;strokeColor=none;fillColor=none;align=center;verticalAlign=middle;whiteSpace=wrap;rounded=0;" vertex="1" parent="1">
          <mxGeometry x="-510" y="500" width="60" height="20" as="geometry" />
        </mxCell>
        <mxCell id="NzUYAXVn2wpB4ZHDf69p-43" style="edgeStyle=orthogonalEdgeStyle;rounded=0;orthogonalLoop=1;jettySize=auto;html=1;" edge="1" parent="1" source="NzUYAXVn2wpB4ZHDf69p-42">
          <mxGeometry relative="1" as="geometry">
            <mxPoint x="-490" y="720" as="targetPoint" />
          </mxGeometry>
        </mxCell>
        <mxCell id="NzUYAXVn2wpB4ZHDf69p-42" value="保存操作" style="ellipse;whiteSpace=wrap;html=1;" vertex="1" parent="1">
          <mxGeometry x="-640" y="695" width="100" height="50" as="geometry" />
        </mxCell>
        <mxCell id="NzUYAXVn2wpB4ZHDf69p-48" value="" style="shape=cylinder3;whiteSpace=wrap;html=1;boundedLbl=1;backgroundOutline=1;size=15;" vertex="1" parent="1">
          <mxGeometry x="-90" y="725" width="60" height="70" as="geometry" />
        </mxCell>
        <mxCell id="NzUYAXVn2wpB4ZHDf69p-49" value="mysql" style="text;html=1;align=center;verticalAlign=middle;resizable=0;points=[];autosize=1;" vertex="1" parent="1">
          <mxGeometry x="5" y="765" width="50" height="20" as="geometry" />
        </mxCell>
        <mxCell id="NzUYAXVn2wpB4ZHDf69p-51" value="写入表：hdt_landing_page" style="text;html=1;align=center;verticalAlign=middle;resizable=0;points=[];autosize=1;" vertex="1" parent="1">
          <mxGeometry x="-320" y="745" width="160" height="20" as="geometry" />
        </mxCell>
        <mxCell id="NzUYAXVn2wpB4ZHDf69p-56" value="数据处理" style="shape=process;whiteSpace=wrap;html=1;backgroundOutline=1;" vertex="1" parent="1">
          <mxGeometry x="-490" y="695" width="100" height="50" as="geometry" />
        </mxCell>
        <mxCell id="NzUYAXVn2wpB4ZHDf69p-68" style="edgeStyle=orthogonalEdgeStyle;rounded=0;orthogonalLoop=1;jettySize=auto;html=1;exitX=1;exitY=0;exitDx=0;exitDy=0;exitPerimeter=0;entryX=0.5;entryY=1;entryDx=0;entryDy=0;entryPerimeter=0;" edge="1" parent="1" source="NzUYAXVn2wpB4ZHDf69p-64" target="NzUYAXVn2wpB4ZHDf69p-19">
          <mxGeometry relative="1" as="geometry">
            <Array as="points">
              <mxPoint x="-60" y="670" />
            </Array>
          </mxGeometry>
        </mxCell>
        <mxCell id="NzUYAXVn2wpB4ZHDf69p-70" style="edgeStyle=orthogonalEdgeStyle;rounded=0;orthogonalLoop=1;jettySize=auto;html=1;exitX=1;exitY=1;exitDx=0;exitDy=0;exitPerimeter=0;entryX=0;entryY=0;entryDx=0;entryDy=45;entryPerimeter=0;" edge="1" parent="1" source="NzUYAXVn2wpB4ZHDf69p-64" target="NzUYAXVn2wpB4ZHDf69p-48">
          <mxGeometry relative="1" as="geometry">
            <Array as="points">
              <mxPoint x="-120" y="770" />
              <mxPoint x="-120" y="770" />
            </Array>
          </mxGeometry>
        </mxCell>
        <mxCell id="NzUYAXVn2wpB4ZHDf69p-64" value="" style="strokeWidth=2;html=1;shape=mxgraph.flowchart.annotation_2;align=left;labelPosition=right;pointerEvents=1;" vertex="1" parent="1">
          <mxGeometry x="-390" y="670" width="50" height="100" as="geometry" />
        </mxCell>
        <mxCell id="NzUYAXVn2wpB4ZHDf69p-71" value="" style="endArrow=classic;html=1;entryX=0.5;entryY=0;entryDx=0;entryDy=0;entryPerimeter=0;" edge="1" parent="1" target="NzUYAXVn2wpB4ZHDf69p-48">
          <mxGeometry width="50" height="50" relative="1" as="geometry">
            <mxPoint x="-60" y="675" as="sourcePoint" />
            <mxPoint x="-30" y="665" as="targetPoint" />
          </mxGeometry>
        </mxCell>
        <mxCell id="NzUYAXVn2wpB4ZHDf69p-72" value="当执行发布时，异步执行数据同步到redis,&lt;br&gt;并写入表：hdt_landing_page_publish_record" style="text;html=1;align=center;verticalAlign=middle;resizable=0;points=[];autosize=1;" vertex="1" parent="1">
          <mxGeometry x="-370" y="670" width="260" height="30" as="geometry" />
        </mxCell>
        <mxCell id="NzUYAXVn2wpB4ZHDf69p-74" style="edgeStyle=orthogonalEdgeStyle;rounded=0;orthogonalLoop=1;jettySize=auto;html=1;entryX=0.136;entryY=0.825;entryDx=0;entryDy=0;entryPerimeter=0;" edge="1" parent="1" source="NzUYAXVn2wpB4ZHDf69p-73" target="NzUYAXVn2wpB4ZHDf69p-35">
          <mxGeometry relative="1" as="geometry" />
        </mxCell>
        <mxCell id="NzUYAXVn2wpB4ZHDf69p-73" value="Actor" style="shape=umlActor;verticalLabelPosition=bottom;verticalAlign=top;html=1;outlineConnect=0;" vertex="1" parent="1">
          <mxGeometry x="-610" y="550" width="20" height="50" as="geometry" />
        </mxCell>
        <mxCell id="NzUYAXVn2wpB4ZHDf69p-78" style="edgeStyle=orthogonalEdgeStyle;rounded=0;orthogonalLoop=1;jettySize=auto;html=1;exitX=1;exitY=0.5;exitDx=0;exitDy=0;entryX=-0.014;entryY=0.68;entryDx=0;entryDy=0;entryPerimeter=0;" edge="1" parent="1" source="NzUYAXVn2wpB4ZHDf69p-75" target="NzUYAXVn2wpB4ZHDf69p-76">
          <mxGeometry relative="1" as="geometry" />
        </mxCell>
        <mxCell id="NzUYAXVn2wpB4ZHDf69p-75" value="数据处理" style="shape=process;whiteSpace=wrap;html=1;backgroundOutline=1;" vertex="1" parent="1">
          <mxGeometry x="-460" y="550" width="100" height="50" as="geometry" />
        </mxCell>
        <mxCell id="NzUYAXVn2wpB4ZHDf69p-80" style="edgeStyle=orthogonalEdgeStyle;rounded=0;orthogonalLoop=1;jettySize=auto;html=1;exitX=1;exitY=1;exitDx=0;exitDy=0;entryX=1;entryY=0;entryDx=0;entryDy=45;entryPerimeter=0;" edge="1" parent="1" source="NzUYAXVn2wpB4ZHDf69p-76" target="NzUYAXVn2wpB4ZHDf69p-48">
          <mxGeometry relative="1" as="geometry" />
        </mxCell>
        <mxCell id="NzUYAXVn2wpB4ZHDf69p-76" value="" style="shape=tapeData;whiteSpace=wrap;html=1;perimeter=ellipsePerimeter;" vertex="1" parent="1">
          <mxGeometry x="-205" y="540" width="70" height="50" as="geometry" />
        </mxCell>
        <mxCell id="NzUYAXVn2wpB4ZHDf69p-77" value="rabbit-mq" style="text;html=1;align=center;verticalAlign=middle;resizable=0;points=[];autosize=1;" vertex="1" parent="1">
          <mxGeometry x="-135" y="550" width="70" height="20" as="geometry" />
        </mxCell>
        <mxCell id="NzUYAXVn2wpB4ZHDf69p-79" value="表单数据收集" style="text;html=1;strokeColor=none;fillColor=none;align=center;verticalAlign=middle;whiteSpace=wrap;rounded=0;" vertex="1" parent="1">
          <mxGeometry x="-310" y="555" width="60" height="20" as="geometry" />
        </mxCell>
        <mxCell id="NzUYAXVn2wpB4ZHDf69p-82" value="数据消费落入mysql" style="shape=process;whiteSpace=wrap;html=1;backgroundOutline=1;" vertex="1" parent="1">
          <mxGeometry x="-30" y="630" width="120" height="60" as="geometry" />
        </mxCell>
      </root>
    </mxGraphModel>
  </diagram>
</mxfile>
